<?xml version="1.0" encoding="UTF-8" standalone="no"?>
<!DOCTYPE svg PUBLIC "-//W3C//DTD SVG 1.1//EN" "http://www.w3.org/Graphics/SVG/1.1/DTD/svg11.dtd">
<svg version="1.1" xmlns="http://www.w3.org/2000/svg" xmlns:xlink="http://www.w3.org/1999/xlink" preserveAspectRatio="xMidYMid meet" viewBox="0 0 640 368" width="640" height="368"><defs><path d="M333.44 110.26L340.7 110.91L347.87 111.82L354.95 112.96L361.94 114.35L368.81 115.98L375.58 117.83L382.22 119.91L388.75 122.21L395.15 124.73L401.41 127.46L407.53 130.39L413.51 133.52L419.34 136.85L425.01 140.37L430.51 144.07L435.85 147.95L441.01 152.01L445.99 156.23L450.79 160.62L455.39 165.17L459.8 169.87L464 174.72L467.99 179.72L471.77 184.85L475.32 190.12L478.65 195.52L481.75 201.03L484.6 206.67L487.21 212.42L489.58 218.28L491.68 224.24L493.53 230.3L495.1 236.45L496.4 242.69L497.43 249.01L498.17 255.4L498.61 261.87L498.76 268.41L498.61 274.95L498.17 281.41L497.43 287.81L496.4 294.13L495.1 300.37L493.53 306.52L491.68 312.58L489.58 318.54L487.21 324.4L484.6 330.15L481.75 335.78L478.65 341.3L475.32 346.7L471.77 351.97L467.99 357.1L464 362.09L459.8 366.95L457.87 369L457.18 366.28L455.94 362.3L454.49 358.38L452.84 354.53L450.98 350.74L448.93 347.02L446.69 343.37L444.26 339.81L441.65 336.32L438.86 332.91L435.89 329.59L432.76 326.36L429.46 323.22L426 320.18L422.39 317.24L418.62 314.4L414.71 311.67L410.66 309.05L406.47 306.54L402.15 304.14L397.7 301.87L393.13 299.72L388.43 297.69L383.63 295.8L378.71 294.03L373.69 292.4L368.56 290.92L363.34 289.57L358.03 288.37L352.64 287.32L347.16 286.42L341.6 285.68L335.97 285.1L330.27 284.68L324.5 284.42L318.68 284.34L312.86 284.42L307.09 284.68L301.39 285.1L295.76 285.68L290.2 286.42L284.72 287.32L279.33 288.37L274.02 289.57L268.8 290.92L263.68 292.4L258.65 294.03L253.74 295.8L248.93 297.69L244.24 299.72L239.66 301.87L235.21 304.14L230.89 306.54L226.7 309.05L222.65 311.67L218.74 314.4L214.97 317.24L211.36 320.18L207.9 323.22L204.6 326.36L201.47 329.59L198.5 332.91L195.71 336.32L193.1 339.81L190.67 343.37L188.43 347.02L186.38 350.74L184.52 354.53L182.87 358.38L181.42 362.3L180.19 366.28L179.49 369L177.56 366.95L173.36 362.09L169.37 357.1L165.59 351.97L162.04 346.7L158.71 341.3L155.62 335.78L152.76 330.15L150.15 324.4L147.79 318.54L145.68 312.58L143.84 306.52L142.26 300.37L140.96 294.13L139.93 287.81L139.2 281.41L138.75 274.95L138.6 268.41L138.75 261.87L139.2 255.4L139.93 249.01L140.96 242.69L142.26 236.45L143.84 230.3L145.68 224.24L147.79 218.28L150.15 212.42L152.76 206.67L155.62 201.03L158.71 195.52L162.04 190.12L165.59 184.85L169.37 179.72L173.36 174.72L177.56 169.87L181.97 165.17L186.57 160.62L191.37 156.23L196.35 152.01L201.51 147.95L206.85 144.07L212.36 140.37L218.02 136.85L223.85 133.52L229.83 130.39L235.95 127.46L242.22 124.73L248.61 122.21L255.14 119.91L261.79 117.83L268.55 115.98L275.43 114.35L282.41 112.96L289.49 111.82L296.66 110.91L303.92 110.26L311.26 109.87L318.68 109.74L326.1 109.87L333.44 110.26ZM327.54 0L328.24 0.01L328.94 0.01L329.64 0.02L330.33 0.02L331.03 0.03L331.72 0.04L332.42 0.05L333.11 0.07L333.8 0.08L334.49 0.1L335.18 0.11L335.87 0.13L336.56 0.15L337.25 0.17L337.93 0.19L338.62 0.22L339.3 0.24L339.99 0.27L340.67 0.3L341.35 0.33L342.03 0.36L342.71 0.39L343.39 0.42L344.06 0.46L344.74 0.49L345.42 0.53L346.09 0.57L346.76 0.61L347.43 0.65L348.11 0.69L348.78 0.73L349.45 0.78L350.11 0.83L350.78 0.87L351.45 0.92L352.11 0.97L352.78 1.03L353.44 1.08L362.09 1.95L370.63 3.14L379.06 4.65L387.37 6.46L395.56 8.58L403.62 11L411.55 13.7L419.33 16.69L426.97 19.95L434.45 23.49L441.77 27.29L448.93 31.35L455.92 35.66L462.74 40.21L469.37 45L475.81 50.03L482.06 55.28L488.11 60.75L493.95 66.43L499.59 72.32L505 78.41L510.19 84.7L515.15 91.17L519.88 97.83L524.37 104.66L528.6 111.65L532.59 118.81L536.32 126.13L539.78 133.6L541.88 138.6L545.57 138.6L549.47 138.68L553.34 138.92L557.16 139.3L560.94 139.84L564.66 140.53L568.34 141.36L571.96 142.33L575.52 143.43L579.02 144.68L582.45 146.05L585.82 147.55L589.11 149.18L592.33 150.93L595.48 152.8L598.54 154.79L601.53 156.88L604.42 159.09L607.23 161.41L609.95 163.83L612.57 166.36L615.09 168.98L617.51 171.69L619.83 174.5L622.04 177.4L624.14 180.38L626.12 183.44L627.99 186.59L629.74 189.81L631.37 193.11L632.87 196.47L634.25 199.91L635.49 203.41L636.6 206.97L637.57 210.59L638.4 214.26L639.08 217.99L639.62 221.76L640.01 225.58L640.24 229.45L640.32 233.36L640.32 256.91L640.25 260.34L640.04 263.74L639.7 267.1L639.23 270.41L638.63 273.69L637.9 276.91L637.05 280.09L636.08 283.22L634.99 286.29L633.78 289.31L632.46 292.27L631.03 295.16L629.49 297.99L627.85 300.75L626.11 303.45L624.26 306.07L622.32 308.61L620.29 311.08L618.16 313.46L615.94 315.76L613.64 317.98L611.26 320.11L608.79 322.14L606.25 324.08L603.63 325.93L600.93 327.67L598.17 329.31L595.34 330.85L592.45 332.28L589.49 333.6L586.47 334.81L583.4 335.9L580.27 336.87L577.09 337.72L573.87 338.45L570.59 339.05L567.28 339.52L563.92 339.86L560.52 340.07L557.09 340.14L533.77 340.14L533.16 340.13L532.54 340.09L531.94 340.03L531.34 339.94L530.76 339.84L530.18 339.7L529.6 339.55L529.04 339.38L528.49 339.18L527.95 338.96L527.41 338.73L526.89 338.47L526.39 338.19L525.89 337.9L525.4 337.58L524.93 337.25L524.48 336.9L524.03 336.54L523.6 336.15L523.19 335.76L522.79 335.34L522.41 334.91L522.04 334.47L521.69 334.01L521.36 333.54L521.05 333.06L520.75 332.56L520.48 332.05L520.22 331.53L519.98 331L519.76 330.46L519.57 329.9L519.39 329.34L519.24 328.77L519.11 328.19L519 327.6L518.92 327L518.86 326.4L518.82 325.79L518.81 325.17L518.81 192.45L518.16 188.66L516.73 181.87L515.05 175.17L513.14 168.57L510.99 162.07L508.61 155.67L506.01 149.38L503.18 143.21L500.14 137.16L496.88 131.23L493.42 125.44L489.76 119.78L485.9 114.27L481.84 108.9L477.6 103.68L473.18 98.62L468.57 93.72L463.79 88.99L458.84 84.43L453.73 80.05L448.46 75.85L443.03 71.84L437.45 68.03L431.72 64.41L425.86 60.99L419.85 57.79L413.72 54.79L407.46 52.02L401.07 49.47L394.57 47.15L387.95 45.07L381.23 43.23L374.4 41.63L367.47 40.28L360.45 39.18L353.34 38.35L352.67 38.29L352.01 38.22L351.34 38.16L350.67 38.1L350 38.04L349.34 37.99L348.67 37.93L348 37.88L347.32 37.83L346.65 37.78L345.98 37.73L345.31 37.69L344.63 37.64L343.96 37.6L343.28 37.56L342.6 37.52L341.93 37.48L341.25 37.44L340.57 37.41L339.89 37.37L339.21 37.34L338.53 37.31L337.85 37.28L337.16 37.26L336.48 37.23L335.8 37.21L335.11 37.18L334.43 37.16L333.74 37.15L333.05 37.13L332.36 37.11L331.67 37.1L330.98 37.09L330.29 37.08L329.6 37.07L328.91 37.06L328.22 37.05L327.53 37.05L326.83 37.05L326.14 37.05L325.22 37.05L324.31 37.05L323.39 37.06L322.47 37.07L321.56 37.08L320.64 37.09L319.71 37.1L318.79 37.12L317.87 37.14L316.94 37.16L316.01 37.19L315.09 37.21L314.16 37.24L313.23 37.27L312.29 37.3L311.36 37.34L310.42 37.38L309.49 37.42L308.55 37.46L307.61 37.51L306.67 37.55L305.73 37.6L304.79 37.65L303.84 37.71L302.9 37.76L301.95 37.82L301 37.88L300.05 37.95L299.1 38.01L298.15 38.08L297.19 38.15L296.24 38.22L295.28 38.29L294.32 38.37L293.36 38.45L292.4 38.53L291.44 38.62L290.48 38.7L289.51 38.79L288.55 38.88L281.44 39.69L274.42 40.76L267.5 42.09L260.67 43.67L253.95 45.49L247.33 47.56L240.83 49.86L234.44 52.39L228.18 55.14L222.05 58.12L216.04 61.3L210.17 64.7L204.45 68.3L198.87 72.1L193.43 76.1L188.16 80.28L183.04 84.65L178.09 89.19L173.31 93.91L168.7 98.8L164.27 103.85L160.03 109.05L155.97 114.41L152.11 119.91L148.44 125.56L144.98 131.35L141.72 137.26L138.67 143.3L135.85 149.46L133.24 155.74L130.86 162.13L128.71 168.63L126.79 175.22L125.11 181.91L123.68 188.69L122.5 195.56L121.58 202.5L121.51 203.15L121.51 325.17L121.5 325.79L121.46 326.4L121.4 327L121.32 327.6L121.21 328.19L121.08 328.77L120.93 329.34L120.75 329.9L120.56 330.46L120.34 331L120.1 331.53L119.84 332.05L119.57 332.56L119.27 333.06L118.96 333.54L118.63 334.01L118.28 334.47L117.91 334.91L117.53 335.34L117.13 335.76L116.72 336.15L116.29 336.54L115.84 336.9L115.39 337.25L114.92 337.58L114.43 337.9L113.93 338.19L113.43 338.47L112.91 338.73L112.37 338.96L111.83 339.18L111.28 339.38L110.72 339.55L110.14 339.7L109.56 339.84L108.98 339.94L108.38 340.03L107.78 340.09L107.16 340.13L106.55 340.14L83.23 340.14L79.8 340.07L76.4 339.86L73.04 339.52L69.73 339.05L66.45 338.45L63.23 337.72L60.05 336.87L56.92 335.9L53.85 334.81L50.83 333.6L47.87 332.28L44.98 330.85L42.15 329.31L39.39 327.67L36.69 325.93L34.07 324.08L31.53 322.14L29.06 320.11L26.68 317.98L24.38 315.76L22.16 313.46L20.03 311.08L18 308.61L16.06 306.07L14.21 303.45L12.47 300.75L10.83 297.99L9.29 295.16L7.86 292.27L6.54 289.31L5.33 286.29L4.24 283.22L3.27 280.09L2.42 276.91L1.69 273.69L1.09 270.41L0.62 267.1L0.28 263.74L0.07 260.34L0 256.91L0 233.36L0.08 229.45L0.31 225.58L0.7 221.76L1.24 217.99L1.93 214.26L2.75 210.59L3.72 206.97L4.83 203.41L6.07 199.91L7.45 196.47L8.95 193.11L10.58 189.81L12.33 186.59L14.2 183.44L16.18 180.38L18.28 177.4L20.49 174.5L22.81 171.69L25.23 168.98L27.75 166.36L30.37 163.83L33.09 161.41L35.9 159.09L38.79 156.88L41.78 154.79L44.84 152.8L47.99 150.93L51.21 149.18L54.5 147.55L57.87 146.05L61.3 144.68L64.8 143.43L68.36 142.33L71.98 141.36L75.66 140.53L79.38 139.84L83.16 139.3L86.98 138.92L90.85 138.68L94.75 138.6L95.53 138.6L97.6 133.69L101.07 126.24L104.8 118.93L108.79 111.79L113.03 104.8L117.52 97.98L122.25 91.34L127.21 84.88L132.41 78.61L137.83 72.54L143.46 66.66L149.31 60.99L155.36 55.54L161.61 50.3L168.06 45.3L174.69 40.52L181.5 35.99L188.5 31.7L195.66 27.66L202.98 23.88L210.47 20.36L218.1 17.12L225.88 14.16L233.81 11.47L241.87 9.08L250.05 6.99L258.36 5.2L266.79 3.71L275.33 2.55L283.97 1.7L285.06 1.62L286.14 1.54L287.23 1.46L288.31 1.38L289.39 1.3L290.47 1.23L291.55 1.16L292.62 1.09L293.7 1.02L294.77 0.96L295.84 0.9L296.91 0.84L297.97 0.78L299.04 0.72L300.1 0.67L301.17 0.61L302.23 0.56L303.28 0.52L304.34 0.47L305.4 0.43L306.45 0.38L307.5 0.35L308.55 0.31L309.6 0.27L310.64 0.24L311.69 0.21L312.73 0.18L313.77 0.15L314.81 0.13L315.85 0.11L316.89 0.09L317.92 0.07L318.95 0.05L319.99 0.04L321.01 0.03L322.04 0.02L323.07 0.01L324.09 0L325.12 0L326.14 0L326.84 0L327.54 0ZM235.99 167.77L233.92 167.92L231.88 168.13L229.87 168.4L227.88 168.73L225.92 169.11L224 169.55L222.11 170.04L220.25 170.58L218.43 171.17L216.65 171.82L214.9 172.51L213.2 173.24L211.54 174.03L209.93 174.85L208.36 175.72L206.85 176.64L205.38 177.59L203.96 178.59L202.59 179.62L201.28 180.69L200.03 181.8L198.83 182.94L197.7 184.11L196.62 185.32L195.61 186.56L194.66 187.83L193.78 189.13L192.97 190.46L192.23 191.81L191.55 193.19L190.96 194.59L190.43 196.02L189.98 197.47L189.61 198.93L189.32 200.42L189.11 201.93L188.98 203.45L188.94 204.99L188.98 206.53L189.11 208.05L189.32 209.55L189.61 211.04L189.98 212.51L190.43 213.96L190.96 215.38L191.55 216.78L192.23 218.16L192.97 219.52L193.78 220.84L194.66 222.14L195.61 223.41L196.62 224.65L197.7 225.86L198.83 227.04L200.03 228.18L201.28 229.28L202.59 230.35L203.96 231.39L205.38 232.38L206.85 233.34L208.36 234.25L209.93 235.12L211.54 235.95L213.2 236.73L214.9 237.47L216.65 238.16L218.43 238.8L220.25 239.39L222.11 239.93L224 240.42L225.92 240.86L227.88 241.24L229.87 241.57L231.88 241.84L233.92 242.05L235.99 242.21L238.08 242.3L240.19 242.33L242.3 242.3L244.39 242.21L246.46 242.05L248.5 241.84L250.51 241.57L252.5 241.24L254.46 240.86L256.38 240.42L258.27 239.93L260.13 239.39L261.95 238.8L263.73 238.16L265.48 237.47L267.18 236.73L268.84 235.95L270.45 235.12L272.02 234.25L273.54 233.34L275.01 232.38L276.42 231.39L277.79 230.35L279.1 229.28L280.35 228.18L281.55 227.04L282.68 225.86L283.76 224.65L284.77 223.41L285.72 222.14L286.6 220.84L287.41 219.52L288.15 218.16L288.83 216.78L289.43 215.38L289.95 213.96L290.4 212.51L290.77 211.04L291.06 209.55L291.27 208.05L291.4 206.53L291.44 204.99L291.4 203.45L291.27 201.93L291.06 200.42L290.77 198.93L290.4 197.47L289.95 196.02L289.43 194.59L288.83 193.19L288.15 191.81L287.41 190.46L286.6 189.13L285.72 187.83L284.77 186.56L283.76 185.32L282.68 184.11L281.55 182.94L280.35 181.8L279.1 180.69L277.79 179.62L276.42 178.59L275.01 177.59L273.54 176.64L272.02 175.72L270.45 174.85L268.84 174.03L267.18 173.24L265.48 172.51L263.73 171.82L261.95 171.17L260.13 170.58L258.27 170.04L256.38 169.55L254.46 169.11L252.5 168.73L250.51 168.4L248.5 168.13L246.46 167.92L244.39 167.77L242.3 167.68L240.19 167.64L238.08 167.68L235.99 167.77ZM392.97 167.77L390.9 167.92L388.86 168.13L386.85 168.4L384.86 168.73L382.9 169.11L380.98 169.55L379.09 170.04L377.23 170.58L375.41 171.17L373.63 171.82L371.88 172.51L370.18 173.24L368.52 174.03L366.91 174.85L365.34 175.72L363.83 176.64L362.36 177.59L360.94 178.59L359.57 179.62L358.26 180.69L357.01 181.8L355.81 182.94L354.68 184.11L353.6 185.32L352.59 186.56L351.64 187.83L350.76 189.13L349.95 190.46L349.21 191.81L348.53 193.19L347.94 194.59L347.41 196.02L346.96 197.47L346.59 198.93L346.3 200.42L346.09 201.93L345.96 203.45L345.92 204.99L345.96 206.53L346.09 208.05L346.3 209.55L346.59 211.04L346.96 212.51L347.41 213.96L347.94 215.38L348.53 216.78L349.21 218.16L349.95 219.52L350.76 220.84L351.64 222.14L352.59 223.41L353.6 224.65L354.68 225.86L355.81 227.04L357.01 228.18L358.26 229.28L359.57 230.35L360.94 231.39L362.36 232.38L363.83 233.34L365.34 234.25L366.91 235.12L368.52 235.95L370.18 236.73L371.88 237.47L373.63 238.16L375.41 238.8L377.23 239.39L379.09 239.93L380.98 240.42L382.9 240.86L384.86 241.24L386.85 241.57L388.86 241.84L390.9 242.05L392.97 242.21L395.06 242.3L397.17 242.33L399.28 242.3L401.37 242.21L403.44 242.05L405.48 241.84L407.49 241.57L409.48 241.24L411.44 240.86L413.36 240.42L415.25 239.93L417.11 239.39L418.93 238.8L420.71 238.16L422.46 237.47L424.16 236.73L425.82 235.95L427.43 235.12L429 234.25L430.52 233.34L431.99 232.38L433.4 231.39L434.77 230.35L436.08 229.28L437.33 228.18L438.53 227.04L439.66 225.86L440.74 224.65L441.75 223.41L442.7 222.14L443.58 220.84L444.39 219.52L445.13 218.16L445.81 216.78L446.41 215.38L446.93 213.96L447.38 212.51L447.75 211.04L448.04 209.55L448.25 208.05L448.38 206.53L448.42 204.99L448.38 203.45L448.25 201.93L448.04 200.42L447.75 198.93L447.38 197.47L446.93 196.02L446.41 194.59L445.81 193.19L445.13 191.81L444.39 190.46L443.58 189.13L442.7 187.83L441.75 186.56L440.74 185.32L439.66 184.11L438.53 182.94L437.33 181.8L436.08 180.69L434.77 179.62L433.4 178.59L431.99 177.59L430.52 176.64L429 175.72L427.43 174.85L425.82 174.03L424.16 173.24L422.46 172.51L420.71 171.82L418.93 171.17L417.11 170.58L415.25 170.04L413.36 169.55L411.44 169.11L409.48 168.73L407.49 168.4L405.48 168.13L403.44 167.92L401.37 167.77L399.28 167.68L397.17 167.64L395.06 167.68L392.97 167.77Z" id="bn4U5BevH"></path></defs><g><g><g><use xlink:href="#bn4U5BevH" opacity="1" fill="#817fd6" fill-opacity="1"></use><g><use xlink:href="#bn4U5BevH" opacity="1" fill-opacity="0"></use></g></g></g></g></svg>
