<?xml version="1.0" encoding="UTF-8" standalone="no"?>
<!DOCTYPE svg PUBLIC "-//W3C//DTD SVG 1.1//EN" "http://www.w3.org/Graphics/SVG/1.1/DTD/svg11.dtd">
<svg version="1.1" xmlns="http://www.w3.org/2000/svg" xmlns:xlink="http://www.w3.org/1999/xlink" preserveAspectRatio="xMidYMid meet" viewBox="0 0 640 568" width="640" height="568"><defs><path d="M235.08 355.56L242.35 391.11C421.3 391.11 520.71 391.11 540.59 391.11C557.71 391.11 570.39 407 566.6 423.69C565.98 426.39 561.08 447.96 560.47 450.66C581.24 460.74 595.56 482.03 595.56 506.67C595.56 541.34 567.2 569.38 532.42 568.88C499.28 568.41 472.03 541.51 471.13 508.39C470.65 490.29 477.9 473.89 489.8 462.22C466.51 462.22 280.16 462.22 256.86 462.22C268.39 473.52 275.56 489.25 275.56 506.67C275.56 542.01 246.08 570.48 210.37 568.82C178.66 567.35 152.87 541.73 151.2 510.02C149.91 485.54 162.79 463.96 182.37 452.71C177.16 427.27 151.15 300.07 104.31 71.11C57.73 71.11 31.84 71.11 26.67 71.11C11.94 71.11 0 59.17 0 44.44C0 42.67 0 28.44 0 26.67C0 11.94 11.94 0 26.67 0C38.06 0 129.2 0 140.59 0C153.26 0 164.17 8.91 166.71 21.32C167.39 24.64 170.79 41.24 176.9 71.11C438.75 71.11 584.23 71.11 613.32 71.11C630.43 71.11 643.12 87 639.33 103.69C634.07 126.8 592.05 311.69 586.8 334.8C584.04 346.94 573.25 355.56 560.8 355.56C517.37 355.56 408.8 355.56 235.08 355.56ZM400 213.33C400 173.33 400 151.11 400 146.67C400 139.3 394.03 133.33 386.67 133.33C384 133.33 362.67 133.33 360 133.33C352.64 133.33 346.67 139.3 346.67 146.67C346.67 151.11 346.67 173.33 346.67 213.33C317.98 213.33 302.04 213.33 298.86 213.33C286.98 213.33 281.03 227.7 289.43 236.09C296.88 243.54 356.46 303.12 363.91 310.57C369.11 315.78 377.55 315.78 382.76 310.57C390.21 303.12 449.79 243.54 457.24 236.09C465.64 227.7 459.69 213.33 447.81 213.33C441.44 213.33 425.5 213.33 400 213.33Z" id="d1iOqJDbJl"></path><linearGradient id="gradientakP20T3iA" gradientUnits="userSpaceOnUse" x1="640" y1="0" x2="0" y2="567.86"><stop style="stop-color: #28a9ef;stop-opacity: 1" offset="0%"></stop><stop style="stop-color: #005eeb;stop-opacity: 1" offset="100%"></stop></linearGradient></defs><g><g><g><use xlink:href="#d1iOqJDbJl" opacity="1" fill="url(#gradientakP20T3iA)"></use><g><use xlink:href="#d1iOqJDbJl" opacity="1" fill-opacity="0" stroke="#000000" stroke-width="1" stroke-opacity="0"></use></g></g></g></g></svg>