<?xml version="1.0" encoding="UTF-8" standalone="no"?>
<!DOCTYPE svg PUBLIC "-//W3C//DTD SVG 1.1//EN" "http://www.w3.org/Graphics/SVG/1.1/DTD/svg11.dtd">
<svg version="1.1" xmlns="http://www.w3.org/2000/svg" xmlns:xlink="http://www.w3.org/1999/xlink" preserveAspectRatio="xMidYMid meet" viewBox="0 0 560 640" width="560" height="640"><defs><path d="M560 148.57C560 198.93 434.58 240 280 240C125.42 240 0 198.93 0 148.57C0 142.86 0 97.14 0 91.43C0 41.07 125.42 0 280 0C434.58 0 560 41.07 560 91.43C560 102.86 560 142.86 560 148.57ZM560 348.57C560 398.93 434.58 440 280 440C125.42 440 0 398.93 0 348.57C0 335.71 0 232.86 0 220C60.16 261.43 170.26 280.72 280 280.72C389.74 280.72 499.84 261.43 560 220C560 245.71 560 335.71 560 348.57ZM560 548.57C560 598.93 434.58 640 280 640C125.42 640 0 598.93 0 548.57C0 535.71 0 432.86 0 420C60.16 461.43 170.26 480.72 280 480.72C389.74 480.72 499.84 461.43 560 420C560 445.71 560 535.71 560 548.57Z" id="b1H1q8Yq4Y"></path><linearGradient id="gradientg13iwjT1cD" gradientUnits="userSpaceOnUse" x1="562.77" y1="3.09" x2="2.17" y2="638.97"><stop style="stop-color: #28a9ef;stop-opacity: 1" offset="0%"></stop><stop style="stop-color: #005eeb;stop-opacity: 1" offset="100%"></stop></linearGradient></defs><g><g><g><use xlink:href="#b1H1q8Yq4Y" opacity="1" fill="url(#gradientg13iwjT1cD)"></use><g><use xlink:href="#b1H1q8Yq4Y" opacity="1" fill-opacity="0" stroke="#000000" stroke-width="1" stroke-opacity="0"></use></g></g></g></g></svg>