<?xml version="1.0" encoding="UTF-8" standalone="no"?>
<!DOCTYPE svg PUBLIC "-//W3C//DTD SVG 1.1//EN" "http://www.w3.org/Graphics/SVG/1.1/DTD/svg11.dtd">
<svg version="1.1" xmlns="http://www.w3.org/2000/svg" xmlns:xlink="http://www.w3.org/1999/xlink" preserveAspectRatio="xMidYMid meet" viewBox="0 0 640 559" width="640" height="559"><defs><path d="M40 160C17.91 160 0 142.09 0 120C0 112 0 48 0 40C0 17.91 17.91 0 40 0C96 0 544 0 600 0C622.09 0 640 17.91 640 40C640 48 640 112 640 120C640 142.09 622.09 160 600 160C488 160 96 160 40 160ZM510 80C510 96.57 523.43 110 540 110C556.57 110 570 96.57 570 80C570 63.43 556.57 50 540 50C523.43 50 510 63.43 510 80ZM430 80C430 96.57 443.43 110 460 110C476.57 110 490 96.57 490 80C490 63.43 476.57 50 460 50C443.43 50 430 63.43 430 80ZM40 360C17.91 360 0 342.09 0 320C0 312 0 248 0 240C0 217.91 17.91 200 40 200C96 200 544 200 600 200C622.09 200 640 217.91 640 240C640 248 640 312 640 320C640 342.09 622.09 360 600 360C488 360 96 360 40 360ZM510 280C510 296.57 523.43 310 540 310C556.57 310 570 296.57 570 280C570 263.43 556.57 250 540 250C523.43 250 510 263.43 510 280ZM430 280C430 296.57 443.43 310 460 310C476.57 310 490 296.57 490 280C490 263.43 476.57 250 460 250C443.43 250 430 263.43 430 280ZM40 560C17.91 560 0 542.09 0 520C0 512 0 448 0 440C0 417.91 17.91 400 40 400C96 400 544 400 600 400C622.09 400 640 417.91 640 440C640 448 640 512 640 520C640 542.09 622.09 560 600 560C488 560 96 560 40 560ZM510 480C510 496.57 523.43 510 540 510C556.57 510 570 496.57 570 480C570 463.43 556.57 450 540 450C523.43 450 510 463.43 510 480ZM430 480C430 496.57 443.43 510 460 510C476.57 510 490 496.57 490 480C490 463.43 476.57 450 460 450C443.43 450 430 463.43 430 480Z" id="b3ySaQcfj6"></path><linearGradient id="gradientaNFWFwOsB" gradientUnits="userSpaceOnUse" x1="640" y1="0" x2="3.91" y2="559"><stop style="stop-color: #28a9ef;stop-opacity: 1" offset="0%"></stop><stop style="stop-color: #005eeb;stop-opacity: 1" offset="100%"></stop></linearGradient></defs><g><g><g><use xlink:href="#b3ySaQcfj6" opacity="1" fill="url(#gradientaNFWFwOsB)"></use><g><use xlink:href="#b3ySaQcfj6" opacity="1" fill-opacity="0" stroke="#000000" stroke-width="1" stroke-opacity="0"></use></g></g></g></g></svg>