<?xml version="1.0" encoding="UTF-8" standalone="no"?>
<!DOCTYPE svg PUBLIC "-//W3C//DTD SVG 1.1//EN" "http://www.w3.org/Graphics/SVG/1.1/DTD/svg11.dtd">
<svg version="1.1" xmlns="http://www.w3.org/2000/svg" xmlns:xlink="http://www.w3.org/1999/xlink" preserveAspectRatio="xMidYMid meet" viewBox="0 0 640 640" width="640" height="640"><defs><path d="M0 320C0 496.77 143.23 640 320 640C496.77 640 640 496.77 640 320C640 143.23 496.77 0 320 0C143.23 0 0 143.23 0 320ZM424.65 466.71C420.77 484.26 410.32 488.52 395.74 480.26C390.41 476.33 363.74 456.67 315.74 421.29C292.59 443.59 279.73 455.97 277.16 458.45C272.9 462.71 269.29 466.32 261.03 466.32C261.41 460.89 263.3 433.75 266.71 384.9C355.66 304.54 405.08 259.9 414.97 250.97C421.42 245.29 413.55 242.06 405.03 247.74C392.82 255.43 331.74 293.88 221.81 363.1C174.43 348.31 148.1 340.09 142.84 338.45C125.68 333.03 125.29 321.29 146.45 313.03C177.3 301.14 424.12 205.96 454.97 194.06C469.29 188.9 481.81 197.55 477.16 219.23C477.16 219.23 429.9 441.96 424.65 466.71Z" id="cjAYkrs1r"></path><linearGradient id="gradientf3Gr8Ffogb" gradientUnits="userSpaceOnUse" x1="549.28" y1="93.81" x2="88.66" y2="538.97"><stop style="stop-color: #28a9ef;stop-opacity: 1" offset="0%"></stop><stop style="stop-color: #005eeb;stop-opacity: 1" offset="100%"></stop></linearGradient></defs><g><g><g><use xlink:href="#cjAYkrs1r" opacity="1" fill="url(#gradientf3Gr8Ffogb)"></use><g><use xlink:href="#cjAYkrs1r" opacity="1" fill-opacity="0" stroke="#000000" stroke-width="1" stroke-opacity="0"></use></g></g></g></g></svg>