<?xml version="1.0" encoding="UTF-8"?>
<svg width="1024pt" height="1024pt" style="isolation:isolate" viewBox="300 120 740 700" xmlns="http://www.w3.org/2000/svg">
<defs>
<clipPath id="e">
<rect width="1024" height="1024"/>
</clipPath>
</defs>
<g clip-path="url(#e)">
<clipPath id="g">
<rect width="1024" height="1024" fill="#fff"/>
</clipPath>
<g clip-path="url(#g)">
<path d="m449.29 423.02c-4.286 0.976-7.547 3.456-9.784 7.441-2.238 3.985-2.83 8.29-1.776 12.917l16.18 71.048c1.08 4.743 3.489 8.419 7.232 11.042 3.742 2.623 7.756 3.448 12.042 2.471 4.284-0.975 7.522-3.45 9.713-7.425 2.185-3.973 2.743-8.325 1.663-13.068l-16.18-71.048c-1.054-4.628-3.451-8.251-7.194-10.874s-7.709-3.458-11.896-2.504zm55.067-46.518c-0.858 1.533-2.085 2.478-3.679 2.841-1.597 0.364-3.084 0.037-4.47-0.986-1.384-1.016-2.276-2.4-2.678-4.168-0.401-1.761-0.198-3.398 0.609-4.916 0.808-1.516 2.01-2.455 3.604-2.818s3.109-0.042 4.545 0.962c1.435 1.011 2.354 2.389 2.755 4.15 0.399 1.766 0.168 3.409-0.686 4.935zm63.018-14.352c-0.809 1.522-2.011 2.462-3.602 2.824-1.598 0.364-3.113 0.043-4.548-0.968-1.436-1.004-2.352-2.383-2.755-4.15-0.401-1.762-0.172-3.404 0.686-4.934 0.858-1.527 2.084-2.472 3.682-2.836 1.594-0.363 3.081-0.036 4.468 0.98 1.386 1.022 2.277 2.406 2.678 4.168 0.402 1.764 0.199 3.401-0.609 4.916zm-71.078 169.21c1.155 5.072 3.726 9.002 7.717 11.8 3.993 2.796 8.279 3.673 12.865 2.628l11.065-2.519 8.694 37.476c1.078 4.737 3.489 8.419 7.232 11.042 3.742 2.624 7.708 3.458 11.893 2.505 4.284-0.975 7.547-3.456 9.784-7.442 2.238-3.985 2.817-8.347 1.738-13.084l-8.542-37.508 20.632-4.699 8.542 37.508c1.079 4.737 3.489 8.419 7.232 11.042 3.742 2.624 7.755 3.448 12.042 2.471 4.284-0.975 7.547-3.456 9.784-7.441 2.238-3.986 2.816-8.348 1.738-13.085l-8.542-37.508 11.214-2.554c4.484-1.021 7.918-3.656 10.309-7.907 2.386-4.249 3.003-8.905 1.848-13.977l-25.062-110.05-137.24 31.255 25.061 110.04zm62.266-200.32 5.687-24.059c0.37-1.592-0.128-2.634-1.499-3.134-1.448-0.371-2.368 0.193-2.764 1.669l-5.796 24.266c-10.526-2.471-21.071-2.507-31.635-0.102-10.566 2.407-20.057 7.007-28.471 13.79l-15.732-19.363c-1-1.158-2.072-1.265-3.215-0.308-1.021 1.049-1.019 2.201 7e-3 3.474l15.544 19.224c-9.383 8.518-16.032 18.919-19.94 31.222-3.907 12.308-4.396 24.897-1.46 37.788l138.3-31.495c-2.935-12.888-8.828-24.024-17.679-33.429-8.85-9.397-19.298-15.905-31.342-19.543zm70.442 51.045c-4.188 0.954-7.404 3.398-9.655 7.326-2.249 3.933-2.834 8.268-1.757 12.999l16.181 71.048c1.08 4.743 3.489 8.419 7.231 11.042 3.743 2.624 7.709 3.458 11.894 2.505 4.284-0.976 7.547-3.456 9.785-7.442 2.237-3.985 2.817-8.341 1.737-13.085l-16.18-71.047c-1.078-4.732-3.482-8.386-7.213-10.957-3.729-2.566-7.739-3.364-12.023-2.389z" fill="#fe8247" fill-opacity=".33" fill-rule="evenodd"/>
<clipPath id="f">
<rect width="1024" height="1024" fill="#fff"/>
</clipPath>
<g clip-path="url(#f)">
<g filter="url(#l)">
<defs>
<filter id="b" x="-200%" y="-200%" width="400%" height="400%" color-interpolation-filters="sRGB">
<feGaussianBlur in="SourceGraphic" xmlns="http://www.w3.org/2000/svg"/>
<feOffset dx="-10" dy="2" result="pf_100_offsetBlur" xmlns="http://www.w3.org/2000/svg"/>
<feFlood flood-color="#AE1A49" xmlns="http://www.w3.org/2000/svg"/>
<feComposite in2="pf_100_offsetBlur" operator="in" result="pf_100_dropShadow" xmlns="http://www.w3.org/2000/svg"/>
<feBlend in="SourceGraphic" in2="pf_100_dropShadow" xmlns="http://www.w3.org/2000/svg"/>
</filter>
</defs>
<g filter="url(#b)">
<path d="m399.65 152.81 179.06 0.262c16.1 0.023 33.517 21.065 39.238 46.999l102.22 463.31c5.722 25.933-1.213 52.381-15.8 59.219l-162.24 76.027c-19.257 9.027-40.782-8.465-47.584-39.294l-121.51-550.76c-6.802-30.829 5.357-55.795 26.612-55.764zm15.12 34.306 164.26-3.511c16.178-0.346 33.668 20.501 39.416 46.558l89.861 407.3c5.748 26.057-1.336 52.376-16.144 58.929l-150.36 66.532c-19.164 8.482-40.583-9.328-47.349-40.003l-105.78-479.45c-6.767-30.672 5.154-55.908 26.091-56.356v-1e-3z" fill="#ef2875" fill-rule="evenodd"/>
</g>
</g>
<defs>
<filter id="l" x="-200%" y="-200%" width="400%" height="400%" color-interpolation-filters="sRGB">
<feGaussianBlur in="SourceGraphic" xmlns="http://www.w3.org/2000/svg"/>
<feOffset dx="-5" dy="1" result="pf_100_offsetBlur" xmlns="http://www.w3.org/2000/svg"/>
<feFlood flood-color="#AE1A49" xmlns="http://www.w3.org/2000/svg"/>
<feComposite in2="pf_100_offsetBlur" operator="in" result="pf_100_dropShadow" xmlns="http://www.w3.org/2000/svg"/>
<feBlend in="SourceGraphic" in2="pf_100_dropShadow" xmlns="http://www.w3.org/2000/svg"/>
</filter>
</defs>
<g filter="url(#k)">
<linearGradient id="a" x1=".18396" x2=".55564" y1=".99995" y2="-.12311" gradientTransform="matrix(323.99 0 0 402.01 512 230.16)" gradientUnits="userSpaceOnUse">
<stop stop-color="#ef2875" offset="0"/>
<stop stop-color="#ff8645" offset="1"/>
</linearGradient>
<path d="m534.63 240.77 220.38-10.601c10.528-0.507 22.082 13.572 26.024 31.436l18.324 83.017c3.942 17.863-0.913 34.131-11.056 36.382l-212.32 47.112c-16.064 3.565-33.6-12.331-38.738-35.6l-23.868-108.14c-5.136-23.273 4.582-42.8 21.256-43.607zm44.67 202.39 84.748-20.037c13.238-3.13 27.365 10.926 31.866 31.321l20.92 94.781c4.5 20.395-1.928 41.212-14.662 46.625l-81.522 34.656c-15.4 6.549-32.395-6.863-37.531-30.132l-23.868-108.14c-5.136-23.27 4.034-45.286 20.049-49.072zm147.73-34.927 63.941-15.117c10.112-2.391 21.335 10.192 25.278 28.055l18.323 83.018c3.943 17.863-0.583 35.627-10.31 39.762l-61.506 26.146c-11.477 4.879-24.581-7.312-29-27.343l-20.545-93.091c-4.424-20.031 1.888-38.609 13.819-41.43z" fill="url(#a)" fill-rule="evenodd"/>
<path d="m534.63 240.77 220.38-10.601c10.528-0.507 22.082 13.572 26.024 31.436l18.324 83.017c3.942 17.863-0.913 34.131-11.056 36.382l-212.32 47.112c-16.064 3.565-33.6-12.331-38.738-35.6l-23.868-108.14c-5.136-23.273 4.582-42.8 21.256-43.607zm44.67 202.39 84.748-20.037c13.238-3.13 27.365 10.926 31.866 31.321l20.92 94.781c4.5 20.395-1.928 41.212-14.662 46.625l-81.522 34.656c-15.4 6.549-32.395-6.863-37.531-30.132l-23.868-108.14c-5.136-23.27 4.034-45.286 20.049-49.072zm147.73-34.927 63.941-15.117c10.112-2.391 21.335 10.192 25.278 28.055l18.323 83.018c3.943 17.863-0.583 35.627-10.31 39.762l-61.506 26.146c-11.477 4.879-24.581-7.312-29-27.343l-20.545-93.091c-4.424-20.031 1.888-38.609 13.819-41.43z" fill="url(#a)" fill-rule="evenodd"/>
<clipPath id="j">
<path d="m534.63 240.77 220.38-10.601c10.528-0.507 22.082 13.572 26.024 31.436l18.324 83.017c3.942 17.863-0.913 34.131-11.056 36.382l-212.32 47.112c-16.064 3.565-33.6-12.331-38.738-35.6l-23.868-108.14c-5.136-23.273 4.582-42.8 21.256-43.607zm44.67 202.39 84.748-20.037c13.238-3.13 27.365 10.926 31.866 31.321l20.92 94.781c4.5 20.395-1.928 41.212-14.662 46.625l-81.522 34.656c-15.4 6.549-32.395-6.863-37.531-30.132l-23.868-108.14c-5.136-23.27 4.034-45.286 20.049-49.072zm147.73-34.927 63.941-15.117c10.112-2.391 21.335 10.192 25.278 28.055l18.323 83.018c3.943 17.863-0.583 35.627-10.31 39.762l-61.506 26.146c-11.477 4.879-24.581-7.312-29-27.343l-20.545-93.091c-4.424-20.031 1.888-38.609 13.819-41.43z" fill="url(#a)" fill-rule="evenodd"/>
</clipPath>
<g clip-path="url(#j)">
<g fill="none">
<circle cx="610.8" cy="270.2" r="68" vector-effect="non-scaling-stroke"/>
<clipPath id="i">
<circle cx="610.8" cy="270.2" r="68" fill="#fff" vector-effect="non-scaling-stroke"/>
</clipPath>
<g clip-path="url(#i)">
<mask id="d">
<circle cx="610.8" cy="270.2" r="68" fill="#fff" vector-effect="non-scaling-stroke"/>
</mask>
<circle cx="610.8" cy="270.2" r="68" vector-effect="non-scaling-stroke"/>
<circle cx="610.8" cy="270.2" r="68" mask="url(#d)" stroke="#fff" stroke-linecap="square" stroke-miterlimit="3" stroke-opacity="25" stroke-width="10" vector-effect="non-scaling-stroke"/>
</g>
<circle cx="800.8" cy="488.2" r="46" vector-effect="non-scaling-stroke"/>
<clipPath id="h">
<circle cx="800.8" cy="488.2" r="46" fill="#fff" vector-effect="non-scaling-stroke"/>
</clipPath>
<g clip-path="url(#h)">
<mask id="c">
<circle cx="800.8" cy="488.2" r="46" fill="#fff" vector-effect="non-scaling-stroke"/>
</mask>
<circle cx="800.8" cy="488.2" r="46" vector-effect="non-scaling-stroke"/>
<circle cx="800.8" cy="488.2" r="46" mask="url(#c)" stroke="#fff" stroke-linecap="square" stroke-miterlimit="3" stroke-opacity="25" stroke-width="10" vector-effect="non-scaling-stroke"/>
</g>
</g>
</g>
</g>
<defs>
<filter id="k" x="-200%" y="-200%" width="400%" height="400%" color-interpolation-filters="sRGB">
<feGaussianBlur in="SourceGraphic" xmlns="http://www.w3.org/2000/svg"/>
<feOffset dx="-7" dy="0" result="pf_100_offsetBlur" xmlns="http://www.w3.org/2000/svg"/>
<feFlood flood-color="#AE1A49" xmlns="http://www.w3.org/2000/svg"/>
<feComposite in2="pf_100_offsetBlur" operator="in" result="pf_100_dropShadow" xmlns="http://www.w3.org/2000/svg"/>
<feBlend in="SourceGraphic" in2="pf_100_dropShadow" xmlns="http://www.w3.org/2000/svg"/>
</filter>
</defs>
</g>
</g>
</g>
</svg>
