<?xml version="1.0" encoding="UTF-8"?>
<svg width="381.5pt" height="355.4pt" style="isolation:isolate" viewBox="0 0 360 355.4" xmlns="http://www.w3.org/2000/svg">
<defs>
<clipPath id="f">
<rect width="381.5" height="355.4"/>
</clipPath>
</defs>
<g clip-path="url(#f)">
<clipPath id="e">
<rect width="381.5" height="355.4" fill="#fff"/>
</clipPath>
<g clip-path="url(#e)">
<clipPath id="d">
<rect width="381.5" height="355.4" fill="#fff"/>
</clipPath>
<g clip-path="url(#d)">
<clipPath id="h">
<rect width="381.5" height="355.4" fill="#fff"/>
</clipPath>
<g clip-path="url(#h)">
<g filter="url(#i)">
<path d="m147.99 205.78c46.267-10.193 129.68 12.142 119.13 33.786-9.727 19.964-89.459 15.886-125.32-4.228-12.51-7.017-14.505-13.109-13.855-16.873 0.637-3.681 4.542-9.271 20.044-12.685z" fill="#ff8645" fill-rule="evenodd"/>
</g>
<defs>
<filter id="i" x="-200%" y="-200%" width="400%" height="400%" color-interpolation-filters="sRGB">
<feOffset dx="-8" dy="-5" in="SourceGraphic" xmlns="http://www.w3.org/2000/svg"/>
<feGaussianBlur result="pf_100_offsetBlur" xmlns="http://www.w3.org/2000/svg"/>
<feComposite in="SourceGraphic" in2="pf_100_offsetBlur" operator="out" result="pf_100_inverse" xmlns="http://www.w3.org/2000/svg"/>
<feFlood flood-color="#C35D26" result="pf_100_color" xmlns="http://www.w3.org/2000/svg"/>
<feComposite in="pf_100_color" in2="pf_100_inverse" operator="in" result="pf_100_shadow" xmlns="http://www.w3.org/2000/svg"/>
<feComposite in="pf_100_shadow" in2="SourceGraphic" result="_out_8lD4Z1dYS3UiBHdGL5zMGkZlfwdey8Ax" xmlns="http://www.w3.org/2000/svg"/>
<feOffset dx="0" dy="-2" in="_out_8lD4Z1dYS3UiBHdGL5zMGkZlfwdey8Ax" xmlns="http://www.w3.org/2000/svg"/>
<feGaussianBlur result="pf_101_offsetBlur" xmlns="http://www.w3.org/2000/svg"/>
<feComposite in="_out_8lD4Z1dYS3UiBHdGL5zMGkZlfwdey8Ax" in2="pf_101_offsetBlur" operator="out" result="pf_101_inverse" xmlns="http://www.w3.org/2000/svg"/>
<feFlood flood-color="#C35D26" result="pf_101_color" xmlns="http://www.w3.org/2000/svg"/>
<feComposite in="pf_101_color" in2="pf_101_inverse" operator="in" result="pf_101_shadow" xmlns="http://www.w3.org/2000/svg"/>
<feComposite in="pf_101_shadow" in2="_out_8lD4Z1dYS3UiBHdGL5zMGkZlfwdey8Ax" result="_out_VLAaoXC6Ee3iZc9iAEztwFn0Cz5J6jPK" xmlns="http://www.w3.org/2000/svg"/>
<feMerge>
<feMergeNode in="_out_VLAaoXC6Ee3iZc9iAEztwFn0Cz5J6jPK"/>
</feMerge>
</filter>
</defs>
<g filter="url(#k)">
<path d="m285.73 205.25-81.243-6.05 0.121 24.669-26.876 0.173-0.131-26.845-57.388-4.275c-15.743-1.172-27.862-18.498-27.961-38.763l-0.344-70.259c-0.1-20.266 11.84-39.542 27.559-43.265l165.26-39.147c29.655-7.025 57.38 11.406 57.534 43.044l0.531 108.38c0.156 31.708-27.439 54.542-57.067 52.334zm47.674-159.29c-0.112-22.998-26.008-40.234-48.672-35.294l-166.03 35.294c-11.848 2.582-20.977 21.144-20.902 36.538l0.356 72.655c0.076 15.393 8.682 31.505 20.546 32.179l167.02 9.864c22.694 1.289 47.205-19.684 47.092-42.682l0.582-108.55z" fill="#ff8645" fill-rule="evenodd"/>
</g>
<defs>
<filter id="k" x="-200%" y="-200%" width="400%" height="400%" color-interpolation-filters="sRGB">
<feGaussianBlur in="SourceGraphic" xmlns="http://www.w3.org/2000/svg"/>
<feOffset dx="5" dy="0" result="pf_100_offsetBlur" xmlns="http://www.w3.org/2000/svg"/>
<feFlood flood-color="#C35D26" xmlns="http://www.w3.org/2000/svg"/>
<feComposite in2="pf_100_offsetBlur" operator="in" result="pf_100_dropShadow" xmlns="http://www.w3.org/2000/svg"/>
<feBlend in="SourceGraphic" in2="pf_100_dropShadow" xmlns="http://www.w3.org/2000/svg"/>
</filter>
</defs>
<path d="m250.22 304.02c-2.208 3.825-16.76 14.169-57.175 46.313-5.347 4.006-12.906 5.595-18.574 3.053l-165.37-72.654c-2.363-1.06-1.357-3.888 2.207-6.327l45.146-30.893c3.46-2.368 8.468-3.692 11.228-2.952l185.64 48.962q-0.893 10.673-3.101 14.498z" fill="#c35d26" fill-rule="evenodd"/>
<linearGradient id="b" x1=".0098897" x2="1.965" y1=".20863" y2=".25551" gradientTransform="matrix(252.34 14.642 -5.543 108.43 3.08 232.95)" gradientUnits="userSpaceOnUse">
<stop stop-color="#ef2875" offset="0"/>
<stop stop-color="#ff8645" offset=".22917"/>
</linearGradient>
<path d="m62.348 236.49 185.18 48.141c6.097 1.585 7.587 5.989 3.175 9.836l-60.414 52.678c-5.008 4.366-13.812 5.899-19.505 3.438l-168.6-72.886c-2.447-1.058-1.331-3.996 2.437-6.562l46.496-31.663c3.472-2.364 8.476-3.698 11.23-2.982z" fill="url(#b)" fill-rule="evenodd"/>
<linearGradient id="c" x1="-.025148" x2="1.0252" y1=".53443" y2=".48294" gradientTransform="matrix(135.41 0 0 122.91 133.87 50.689)" gradientUnits="userSpaceOnUse">
<stop stop-color="#ef2875" stop-opacity=".33" offset=".020833"/>
<stop stop-color="#ff8645" stop-opacity=".33" offset="1"/>
</linearGradient>
<path d="m140.42 117.25c3.178 2.271 6.345 4.409 9.511 6.41 3.677-5.756 7.741-11.076 12.213-15.931-0.987-1.477-1.597-3.195-1.707-5.047-0.055-0.914 0.015-1.809 0.199-2.674-5.131-2.618-10.425-5.563-15.952-8.866-3.491 7.58-5.199 15.954-4.681 24.662l0.014-1e-3v3e-3l-0.015 1e-3c0.036 0.591 0.084 1.179 0.139 1.764l0.279-0.321zm6.907-31.14c5.533 3.321 10.815 6.278 15.924 8.9 2.074-2.261 5.127-3.778 8.597-3.984 2.752-0.164 5.338 0.523 7.452 1.81 1.401-0.96 2.833-1.89 4.293-2.784 6.083-3.724 12.661-6.857 19.776-9.368-0.079-0.432-0.129-0.872-0.156-1.315-0.099-1.671 0.175-3.286 0.76-4.775-7.689-5.213-16.695-9.699-26.981-13.524-8.195 3.323-15.434 8.196-21.293 14.182-3.236 3.303-6.05 6.949-8.372 10.858zm37.972-27.783c8.157 3.397 15.482 7.243 21.951 11.583 1.972-1.768 4.538-3.007 7.417-3.428 0.478-2.923 0.916-5.891 1.321-8.914-5.668-1.176-11.622-1.639-17.735-1.275v0.012h-5e-3l-1e-3 -0.012c-4.468 0.266-8.797 0.962-12.948 2.034zm36.576 0.754c-0.357 2.625-0.741 5.213-1.153 7.761 4.118 1.133 7.418 4.026 8.775 7.776 5.442-0.689 11.12-1.098 17.051-1.215-1.213-1.159-2.476-2.274-3.794-3.335-6.03-4.845-13.113-8.607-20.879-10.987zm29.701 19.796c-7.593-0.064-14.765 0.35-21.533 1.218-0.4 2.671-1.756 5.096-3.753 6.96 1.936 2.392 3.71 4.885 5.317 7.482 2.342 3.788 4.323 7.796 5.949 12.022 0.415-0.064 0.838-0.111 1.269-0.137 5.414-0.322 10.188 2.64 11.979 7.009 3.998-0.111 8.128-0.289 12.412-0.52 0.04-1.468 0.021-2.945-0.068-4.431l-0.013 1e-3v-3e-3 -2e-3l0.013-1e-3c-0.665-11.115-4.87-21.26-11.572-29.598zm11.192 39.546c-3.903 0.207-7.68 0.37-11.351 0.478-0.724 4.321-4.241 7.897-8.901 9.042 0.511 5.095 0.635 10.448 0.357 16.06 3.435-0.536 6.911-1.2 10.441-1.984 4.977-7.006 8.287-15.034 9.454-23.596zm-5.683 28.327 0.017 0.056-0.072 0.016c-1.559 2.037-3.249 3.987-5.065 5.842-11.566 11.817-28.062 19.684-46.737 20.797v0.012h-2e-3l-3e-3 1e-3 -1e-3 -0.012c-18.675 1.111-35.987-4.746-48.879-15.11-12.887-10.364-21.365-25.247-22.375-42.186l-0.012 1e-3v-3e-3l0.012-1e-3c-1.008-16.941 5.647-32.723 17.216-44.543s28.061-19.687 46.738-20.798l-1e-3 -0.011 5e-3 -1e-3 1e-3 0.011c18.678-1.111 35.99 4.745 48.878 15.112 12.889 10.361 21.366 25.243 22.374 42.183l0.013-1e-3v2e-3l1e-3 3e-3 -0.014 1e-3c0.849 14.254-3.729 27.685-12.094 38.629zm-9.375 2.011c-1.757 0.319-3.501 0.608-5.234 0.864-0.133 1.426-0.292 2.867-0.471 4.326 1.925-1.539 3.746-3.18 5.448-4.919l0.257-0.271zm-12.465 9.905c0.451-2.817 0.813-5.569 1.087-8.259-10.997 1.176-21.58 1.082-31.897-0.265-1.866 2.264-4.766 3.81-8.101 4.009-0.248 0.014-0.492 0.02-0.733 0.021-1.66 4.568-3.265 9.011-4.73 13.204 4.535 0.675 9.234 0.899 14.024 0.613v-0.012h3e-3 2e-3l1e-3 0.012c11.214-0.667 21.568-4.021 30.344-9.323zm-50.285 7.555c1.601-4.62 3.209-9.083 4.844-13.59-2.483-1.444-4.276-3.798-4.79-6.586-11.175-3.281-22.107-8.105-33.01-14.469-1.529 2.67-2.98 5.429-4.359 8.279 3.348 5.429 7.677 10.279 12.752 14.36 6.97 5.602 15.35 9.761 24.563 12.006zm-40.693-32.789c0.875-1.665 1.778-3.299 2.706-4.904-1.87-1.174-3.742-2.394-5.613-3.657 0.72 2.953 1.697 5.817 2.907 8.561zm39.029-36.498c0.726 1.301 1.174 2.758 1.266 4.313 0.062 1.047-0.041 2.07-0.287 3.046 6.798 2.48 13.447 4.375 20.155 5.784 2.011-6.658 3.914-13.562 5.64-20.768-1.745-0.874-3.253-2.092-4.41-3.563-6.756 2.369-12.987 5.328-18.734 8.845-1.23 0.753-2.443 1.536-3.63 2.343zm-1.831 12.283c-2.063 2.099-4.997 3.494-8.316 3.691-2.423 0.144-4.72-0.371-6.68-1.373-4.22 4.618-8.056 9.687-11.539 15.176 10.225 6.007 20.439 10.594 30.828 13.758 1.592-3.337 5.146-5.775 9.401-6.028 0.409-0.025 0.812-0.028 1.214-0.011 2.172-6.141 4.338-12.469 6.414-19.043-7.106-1.501-14.139-3.521-21.322-6.17zm39.7-19.146c-1.182 0.388-2.442 0.633-3.757 0.712-0.509 0.03-1.014 0.037-1.511 0.015-1.703 7.075-3.569 13.856-5.541 20.395 5.856 0.981 11.81 1.621 18.004 1.985 0.797-1.7 2.049-3.19 3.628-4.337-1.541-4.084-3.436-7.94-5.681-11.573-1.547-2.502-3.263-4.897-5.142-7.197zm15.267 37.935c-4.766-1.073-8.44-4.747-8.971-9.372-6.438-0.392-12.639-1.072-18.747-2.113-2.145 6.801-4.383 13.344-6.628 19.685 2.586 1.659 4.338 4.338 4.523 7.444 0.024 0.409 0.019 0.813-0.011 1.213 9.74 1.165 19.752 1.158 30.175-0.035 0.34-5.918 0.221-11.522-0.341-16.822z" fill="url(#c)"/>
<g filter="url(#j)">
<linearGradient id="a" x1=".00068068" x2="1.9417" y1="1.0951" y2="-.38052" gradientTransform="matrix(163.81 0 0 151.85 79.421 33.115)" gradientUnits="userSpaceOnUse">
<stop stop-color="#ef2875" offset=".029167"/>
<stop stop-color="#ff8645" offset=".35833"/>
</linearGradient>
<path d="m226.13 184.9-57.519-4.519c-7.746-0.61-14.143-7.211-14.48-14.76l-1.665-37.365c-0.336-7.55 5.483-13.916 13.188-14.227l57.215-2.308c9.654-0.39 18.024 6.407 18.416 15.192l1.938 43.479c0.391 8.785-7.387 15.271-17.093 14.508zm-3.491-78.333-57.194 2.79c-7.702 0.376-14.064-5.448-14.4-12.997l-1.666-37.364c-0.336-7.55 5.448-14.695 13.109-15.99l56.889-9.618c9.6-1.624 17.924 4.144 18.316 12.929l1.938 43.48c0.391 8.785-7.341 16.299-16.992 16.77zm-85.355 71.352-42.707-3.357c-5.84-0.458-10.711-6.149-11.004-12.72l-1.449-32.522c-0.293-6.571 4.078-12.084 9.887-12.318l42.481-1.714c7.057-0.285 13.188 5.548 13.522 13.036l1.651 37.057c0.334 7.488-5.287 13.095-12.381 12.538zm-2.988-67.043-42.465 2.072c-5.807 0.284-10.652-4.819-10.944-11.39l-1.45-32.522c-0.293-6.57 4.052-12.673 9.828-13.649l42.239-7.142c7.017-1.186 13.114 3.898 13.448 11.387l1.652 37.057c0.333 7.488-5.255 13.843-12.308 14.187z" fill="url(#a)" fill-rule="evenodd"/>
<clipPath id="g">
<path d="m226.13 184.9-57.519-4.519c-7.746-0.61-14.143-7.211-14.48-14.76l-1.665-37.365c-0.336-7.55 5.483-13.916 13.188-14.227l57.215-2.308c9.654-0.39 18.024 6.407 18.416 15.192l1.938 43.479c0.391 8.785-7.387 15.271-17.093 14.508zm-3.491-78.333-57.194 2.79c-7.702 0.376-14.064-5.448-14.4-12.997l-1.666-37.364c-0.336-7.55 5.448-14.695 13.109-15.99l56.889-9.618c9.6-1.624 17.924 4.144 18.316 12.929l1.938 43.48c0.391 8.785-7.341 16.299-16.992 16.77zm-85.355 71.352-42.707-3.357c-5.84-0.458-10.711-6.149-11.004-12.72l-1.449-32.522c-0.293-6.571 4.078-12.084 9.887-12.318l42.481-1.714c7.057-0.285 13.188 5.548 13.522 13.036l1.651 37.057c0.334 7.488-5.287 13.095-12.381 12.538zm-2.988-67.043-42.465 2.072c-5.807 0.284-10.652-4.819-10.944-11.39l-1.45-32.522c-0.293-6.57 4.052-12.673 9.828-13.649l42.239-7.142c7.017-1.186 13.114 3.898 13.448 11.387l1.652 37.057c0.333 7.488-5.255 13.843-12.308 14.187z" fill="url(#a)" fill-rule="evenodd"/>
</clipPath>
<g clip-path="url(#g)" fill="none" stroke="#fff" stroke-width="2">
<circle cx="89.263" cy="70.318" r="24" vector-effect="non-scaling-stroke"/>
<circle cx="174.99" cy="127.51" r="37.709" vector-effect="non-scaling-stroke"/>
</g>
</g>
<defs>
<filter id="j" x="-200%" y="-200%" width="400%" height="400%" color-interpolation-filters="sRGB">
<feGaussianBlur in="SourceGraphic" xmlns="http://www.w3.org/2000/svg"/>
<feOffset dx="3" dy="1" result="pf_100_offsetBlur" xmlns="http://www.w3.org/2000/svg"/>
<feFlood flood-color="#C35D26" xmlns="http://www.w3.org/2000/svg"/>
<feComposite in2="pf_100_offsetBlur" operator="in" result="pf_100_dropShadow" xmlns="http://www.w3.org/2000/svg"/>
<feBlend in="SourceGraphic" in2="pf_100_dropShadow" xmlns="http://www.w3.org/2000/svg"/>
</filter>
</defs>
</g>
</g>
</g>
</g>
</svg>
