<?xml version="1.0" encoding="UTF-8" standalone="no"?><!-- Generator: Gravit.io --><svg xmlns="http://www.w3.org/2000/svg" xmlns:xlink="http://www.w3.org/1999/xlink" style="isolation:isolate" viewBox="0 0 629.333 564" width="629.333pt" height="564pt"><defs><clipPath id="_clipPath_aBJMSsGmgFSFuZV9CrwrcjrBom4UwbKu"><rect width="629.333" height="564"/></clipPath></defs><g clip-path="url(#_clipPath_aBJMSsGmgFSFuZV9CrwrcjrBom4UwbKu)"><g style="opacity:0.33;"><mask id="_mask_whriP9JzaQUOuEenBAH9uej9FYMKtHYC" x="-200%" y="-200%" width="400%" height="400%"><rect x="-200%" y="-200%" width="400%" height="400%" style="fill:white;"/><path d=" M 268.417 162.229 C 185.737 160.873 117.57 226.123 116.02 308.104 C 114.47 390.085 180.122 457.871 262.795 459.648 C 345.467 461.424 413.971 396.522 415.945 314.55 C 417.918 232.578 352.617 164.459 269.955 162.262 L 268.417 162.229 Z " fill="black" stroke="none"/></mask><path d=" M 268.417 162.229 C 185.737 160.873 117.57 226.123 116.02 308.104 C 114.47 390.085 180.122 457.871 262.795 459.648 C 345.467 461.424 413.971 396.522 415.945 314.55 C 417.918 232.578 352.617 164.459 269.955 162.262 L 268.417 162.229 Z " fill="none"/><path d=" M 268.417 162.229 C 185.737 160.873 117.57 226.123 116.02 308.104 C 114.47 390.085 180.122 457.871 262.795 459.648 C 345.467 461.424 413.971 396.522 415.945 314.55 C 417.918 232.578 352.617 164.459 269.955 162.262 L 268.417 162.229 Z " fill="none" mask="url(#_mask_whriP9JzaQUOuEenBAH9uej9FYMKtHYC)"  stroke-width="12" stroke="#ef2875" stroke-linejoin="miter" stroke-linecap="butt" stroke-miterlimit="4"/><path d=" M 269.186 162.246 L 262.795 459.649 M 415.953 314.17 L 116.027 307.725 M 151.832 216.943 C 220.258 267.589 313.544 269.594 384.082 221.934 M 380.149 404.952 C 311.723 354.306 218.437 352.301 147.899 399.961 M 257.569 165.811 C 213.535 201.104 187.434 253.855 186.228 309.996 C 185.021 366.138 208.831 419.961 251.308 457.114 M 274.379 457.61 C 318.413 422.316 344.514 369.565 345.72 313.424 C 346.927 257.283 323.117 203.459 280.64 166.306" fill="none"  stroke-width="6" stroke="#ef2875" stroke-linejoin="miter" stroke-linecap="butt" stroke-miterlimit="4"/></g><clipPath id="_clipPath_iz7wOuyVNtZxQINdDvVObCElPPPHf3bC"><path d=" M 0 0 L 629.333 0 L 629.333 564 L 0 564 L 0 0 Z " fill="rgb(255,255,255)"/></clipPath><g clip-path="url(#_clipPath_iz7wOuyVNtZxQINdDvVObCElPPPHf3bC)"><g><g filter="url(#lAPfGdMvigwVR1T8FTU4ASY29N0eHnZl)"><path d=" M 531.605 0.054 L 532.144 0.022 L 532.682 0.004 L 533.206 0.002 L 533.732 0.026 L 534.241 0.066 L 534.752 0.132 L 535.248 0.212 L 535.728 0.311 L 536.208 0.422 L 536.674 0.548 L 537.141 0.702 L 537.594 0.858 L 538.03 1.042 L 538.453 1.242 L 538.86 1.458 L 539.268 1.688 L 539.66 1.934 L 540.02 2.196 L 540.382 2.474 L 540.729 2.754 L 541.062 3.06 L 541.38 3.371 L 541.682 3.711 L 541.97 4.054 L 542.242 4.398 L 542.485 4.774 L 542.725 5.15 L 542.938 5.544 L 543.136 5.954 L 543.317 6.367 L 543.469 6.784 L 543.605 7.23 L 543.725 7.666 L 543.832 8.13 L 543.908 8.596 L 543.998 9.53 L 543.725 554.807 L 543.605 555.255 L 543.469 555.688 L 543.317 556.117 L 543.136 556.531 L 542.938 556.927 L 542.725 557.32 L 542.485 557.696 L 542.242 558.072 L 541.97 558.429 L 541.682 558.771 L 541.38 559.096 L 541.062 559.407 L 540.729 559.713 L 540.382 560.007 L 540.02 560.269 L 539.66 560.532 L 539.268 560.777 L 538.86 561.004 L 538.453 561.22 L 538.03 561.42 L 537.594 561.604 L 537.141 561.772 L 536.674 561.911 L 536.208 562.051 L 535.728 562.16 L 535.248 562.257 L 534.752 562.337 L 534.241 562.391 L 533.732 562.431 L 533.208 562.455 L 532.682 562.464 L 532.144 562.444 L 531.605 562.399 L 531.052 562.339 L 530.5 562.264 L 38.151 484.291 L 37.868 484.197 L 37.588 484.087 L 37.321 483.953 L 37.047 483.824 L 36.788 483.688 L 36.531 483.532 L 36.272 483.367 L 36.023 483.193 L 35.78 483.003 L 35.537 482.811 L 35.311 482.603 L 35.084 482.385 L 34.857 482.159 L 34.647 481.925 L 34.436 481.681 L 34.241 481.431 L 34.047 481.172 L 33.86 480.913 L 33.681 480.636 L 33.511 480.352 L 33.347 480.068 L 33.191 479.775 L 33.044 479.476 L 32.911 479.169 L 32.777 478.853 L 32.661 478.539 L 32.552 478.219 L 32.451 477.899 L 32.357 477.569 L 32.272 477.232 L 32.201 476.899 L 32.14 476.555 L 32.093 476.213 L 32.053 475.864 L 32.021 475.517 L 32.008 475.161 L 32 474.807 L 32.093 85.196 L 32.14 84.845 L 32.201 84.512 L 32.272 84.165 L 32.357 83.837 L 32.451 83.508 L 32.552 83.179 L 32.659 82.856 L 32.776 82.543 L 32.909 82.227 L 33.043 81.929 L 33.189 81.629 L 33.345 81.328 L 33.509 81.045 L 33.68 80.761 L 33.859 80.495 L 34.045 80.228 L 34.24 79.968 L 34.435 79.719 L 34.645 79.476 L 34.856 79.243 L 35.083 79.016 L 35.309 78.799 L 35.536 78.601 L 35.779 78.401 L 36.021 78.22 L 36.271 78.047 L 36.529 77.881 L 36.787 77.727 L 37.045 77.58 L 37.333 77.467 L 37.6 77.347 L 37.883 77.245 L 38.165 77.152 L 38.448 77.069 L 38.728 77.007 L 39.019 76.953 L 531.605 0.054 Z  M 54.533 149.4 L 54.276 149.445 L 54.027 149.499 L 53.779 149.563 L 53.539 149.645 L 53.299 149.736 L 53.059 149.837 L 52.825 149.948 L 52.601 150.081 L 52.368 150.211 L 52.152 150.348 L 51.936 150.505 L 51.728 150.661 L 51.52 150.827 L 51.32 151 L 51.128 151.184 L 50.936 151.387 L 50.752 151.579 L 50.576 151.789 L 50.24 152.229 L 50.08 152.456 L 49.928 152.693 L 49.785 152.939 L 49.649 153.184 L 49.521 153.437 L 49.388 153.7 L 49.255 153.964 L 49.152 154.235 L 49.056 154.501 L 48.968 154.781 L 48.888 155.061 L 48.816 155.348 L 48.753 155.644 L 48.697 155.94 L 48.649 156.233 L 48.617 156.536 L 48.593 156.837 L 48.577 157.148 L 48.569 157.459 L 48.649 461.263 L 48.697 461.559 L 48.753 461.857 L 48.816 462.156 L 48.888 462.447 L 48.968 462.727 L 49.056 463.02 L 49.152 463.295 L 49.255 463.569 L 49.388 463.839 L 49.521 464.105 L 49.649 464.365 L 49.785 464.616 L 49.928 464.883 L 50.08 465.127 L 50.24 465.363 L 50.576 465.816 L 50.752 466.035 L 50.936 466.245 L 51.128 466.445 L 51.32 466.637 L 51.52 466.821 L 51.728 466.997 L 51.936 467.171 L 52.152 467.328 L 52.368 467.461 L 52.601 467.601 L 52.825 467.731 L 53.059 467.851 L 53.299 467.963 L 53.539 468.065 L 53.779 468.159 L 54.027 468.233 L 54.276 468.297 L 54.533 468.355 L 54.791 468.401 L 503.59 532.861 L 504.025 532.832 L 504.445 532.788 L 504.866 532.732 L 505.288 532.661 L 505.694 532.577 L 506.086 532.476 L 506.478 532.363 L 507.236 532.08 L 507.598 531.923 L 507.949 531.749 L 508.298 531.563 L 508.632 531.363 L 508.952 531.147 L 509.272 530.917 L 509.565 530.685 L 509.858 530.439 L 510.136 530.177 L 510.398 529.9 L 510.646 529.62 L 510.881 529.327 L 511.114 529.02 L 511.32 528.708 L 511.509 528.381 L 511.685 528.053 L 511.858 527.697 L 511.992 527.351 L 512.125 526.991 L 512.242 526.613 L 512.329 526.233 L 512.417 525.852 L 512.534 525.056 L 512.564 524.643 L 512.329 112.099 L 512.242 111.712 L 512.125 111.331 L 511.992 110.963 L 511.858 110.611 L 511.685 110.26 L 511.509 109.911 L 511.32 109.575 L 511.114 109.255 L 510.881 108.937 L 510.646 108.631 L 510.398 108.341 L 510.136 108.052 L 509.858 107.779 L 509.565 107.519 L 509.272 107.272 L 508.952 107.029 L 508.632 106.799 L 508.298 106.599 L 507.949 106.385 L 507.598 106.199 L 507.236 106.025 L 506.857 105.865 L 506.478 105.719 L 506.086 105.575 L 505.694 105.455 L 505.288 105.352 L 504.866 105.263 L 504.445 105.187 L 504.025 105.124 L 503.59 105.076 L 503.141 105.043 L 502.692 105.035 L 502.244 105.04 L 501.796 105.059 L 501.333 105.092 L 54.533 149.385 L 54.533 149.4 Z  M 57.128 99.088 L 56.644 99.184 L 56.16 99.308 L 55.684 99.461 L 55.217 99.621 L 54.759 99.808 L 54.308 100.016 L 53.859 100.252 L 53.425 100.496 L 52.992 100.759 L 52.575 101.048 L 52.165 101.347 L 51.765 101.663 L 51.373 101.996 L 50.989 102.348 L 50.613 102.719 L 50.253 103.096 L 49.909 103.491 L 49.567 103.904 L 49.247 104.324 L 48.927 104.764 L 48.633 105.217 L 48.34 105.673 L 48.069 106.144 L 47.807 106.632 L 47.56 107.128 L 47.329 107.632 L 47.116 108.143 L 46.916 108.663 L 46.725 109.189 L 46.557 109.733 L 46.407 110.273 L 46.264 110.833 L 46.144 111.389 L 46.04 111.952 L 45.96 112.523 L 45.888 113.1 L 45.841 113.687 L 45.817 114.268 L 45.801 114.859 L 45.801 119.661 L 45.817 120.335 L 45.848 120.997 L 45.904 121.645 L 45.984 122.283 L 46.077 122.917 L 46.197 123.531 L 46.333 124.141 L 46.493 124.731 L 46.667 125.317 L 46.857 125.884 L 47.071 126.439 L 47.301 126.981 L 47.548 127.501 L 47.819 128.011 L 48.099 128.509 L 48.392 128.989 L 48.712 129.456 L 49.039 129.903 L 49.381 130.327 L 49.741 130.74 L 50.115 131.132 L 50.499 131.505 L 50.907 131.856 L 51.315 132.197 L 51.739 132.508 L 52.179 132.808 L 52.628 133.077 L 53.095 133.327 L 53.561 133.556 L 54.041 133.764 L 54.54 133.941 L 55.039 134.109 L 55.545 134.239 L 56.069 134.355 L 56.603 134.432 L 57.136 134.499 L 57.677 134.525 L 58.227 134.533 L 58.787 134.511 L 59.353 134.468 L 351.7 102.033 L 352.462 101.807 L 353.226 101.556 L 353.966 101.283 L 354.694 100.976 L 355.422 100.643 L 356.129 100.291 L 356.822 99.904 L 357.502 99.493 L 358.161 99.073 L 358.82 98.617 L 359.456 98.137 L 360.066 97.651 L 360.666 97.128 L 361.253 96.595 L 361.816 96.039 L 362.356 95.463 L 362.882 94.876 L 363.386 94.267 L 363.866 93.636 L 364.333 92.996 L 364.764 92.347 L 365.181 91.673 L 365.576 90.98 L 365.945 90.287 L 366.278 89.575 L 366.598 88.852 L 366.882 88.121 L 367.141 87.369 L 367.376 86.62 L 367.573 85.863 L 367.746 85.085 L 367.893 84.309 L 368.004 83.527 L 368.078 82.735 L 368.128 81.948 L 368.152 81.152 L 368.152 74.895 L 368.128 74.14 L 368.09 73.387 L 368.004 72.653 L 367.905 71.933 L 367.769 71.217 L 367.596 70.529 L 367.398 69.845 L 367.176 69.176 L 366.929 68.509 L 366.658 67.883 L 366.362 67.26 L 366.029 66.655 L 365.685 66.075 L 365.304 65.515 L 364.909 64.965 L 364.492 64.432 L 364.049 63.925 L 363.596 63.432 L 363.105 62.969 L 362.602 62.533 L 362.088 62.111 L 361.548 61.716 L 360.985 61.336 L 360.412 60.983 L 359.825 60.655 L 359.212 60.355 L 358.589 60.068 L 357.956 59.82 L 357.297 59.599 L 356.64 59.39 L 355.96 59.219 L 355.266 59.075 L 354.562 58.958 L 353.846 58.864 L 353.13 58.807 L 352.392 58.767 L 351.653 58.772 L 350.904 58.792 L 350.144 58.859 L 349.384 58.939 L 57.133 99.072 L 57.128 99.088 Z  M 481.874 44.044 L 480.11 44.618 L 478.377 45.298 L 476.732 46.098 L 475.158 46.991 L 473.645 47.975 L 472.218 49.05 L 470.877 50.2 L 469.621 51.44 L 468.452 52.744 L 467.394 54.11 L 466.434 55.536 L 465.588 57.023 L 464.854 58.546 L 464.244 60.127 L 463.746 61.732 L 463.4 63.368 L 463.178 65.025 L 463.109 66.703 L 463.178 68.363 L 463.4 69.965 L 463.746 71.516 L 464.244 73.009 L 464.854 74.428 L 465.588 75.768 L 466.434 77.048 L 467.394 78.237 L 468.452 79.34 L 469.621 80.353 L 470.877 81.284 L 472.218 82.103 L 473.645 82.823 L 475.158 83.433 L 476.732 83.935 L 478.377 84.315 L 480.11 84.584 L 481.874 84.708 L 483.688 84.712 L 485.545 84.568 L 487.406 84.296 L 489.23 83.885 L 491.014 83.361 L 492.744 82.701 L 494.42 81.941 L 496.042 81.071 L 497.581 80.104 L 499.065 79.037 L 500.452 77.891 L 501.752 76.648 L 502.968 75.335 L 504.069 73.955 L 505.069 72.508 L 505.956 70.995 L 506.726 69.441 L 507.366 67.836 L 507.876 66.183 L 508.254 64.503 L 508.488 62.801 L 508.56 61.082 L 508.488 59.379 L 508.254 57.735 L 507.876 56.148 L 507.366 54.632 L 506.726 53.172 L 505.956 51.81 L 505.069 50.516 L 504.069 49.316 L 502.968 48.21 L 501.752 47.196 L 500.452 46.276 L 499.065 45.472 L 497.581 44.774 L 496.042 44.187 L 494.42 43.716 L 492.744 43.372 L 491.014 43.152 L 489.23 43.059 L 487.406 43.099 L 485.545 43.286 L 483.688 43.602 L 481.874 44.055 L 481.874 44.044 Z  M 421.824 52.171 L 420.177 52.718 L 418.574 53.371 L 417.041 54.123 L 415.574 54.976 L 414.161 55.92 L 412.83 56.951 L 411.58 58.058 L 410.409 59.25 L 409.318 60.503 L 408.332 61.816 L 407.438 63.189 L 406.649 64.623 L 405.964 66.089 L 405.394 67.615 L 404.928 69.161 L 404.605 70.74 L 404.398 72.34 L 404.334 73.96 L 404.398 75.563 L 404.605 77.112 L 404.928 78.611 L 405.394 80.056 L 405.964 81.429 L 406.649 82.728 L 407.438 83.965 L 408.332 85.117 L 409.318 86.187 L 410.409 87.173 L 411.58 88.076 L 412.83 88.872 L 414.161 89.573 L 415.574 90.168 L 417.041 90.661 L 418.574 91.035 L 420.177 91.301 L 421.824 91.428 L 423.512 91.439 L 425.242 91.305 L 426.978 91.049 L 428.677 90.66 L 430.338 90.161 L 431.952 89.531 L 433.514 88.804 L 435.025 87.969 L 436.458 87.043 L 437.841 86.02 L 439.13 84.919 L 440.344 83.724 L 441.477 82.461 L 442.504 81.135 L 443.437 79.743 L 444.264 78.285 L 444.981 76.789 L 445.577 75.243 L 446.052 73.648 L 446.405 72.029 L 446.621 70.389 L 446.688 68.729 L 446.621 67.085 L 446.405 65.485 L 446.052 63.952 L 445.577 62.485 L 444.981 61.075 L 444.264 59.755 L 443.437 58.502 L 442.504 57.339 L 441.477 56.266 L 440.344 55.284 L 439.13 54.391 L 437.841 53.608 L 436.458 52.928 L 435.025 52.355 L 433.514 51.894 L 431.952 51.554 L 430.338 51.335 L 428.677 51.235 L 426.978 51.264 L 425.242 51.438 L 423.512 51.735 L 421.824 52.162 L 421.824 52.171 Z " fill="rgb(255,134,69)"/></g><defs><filter id="lAPfGdMvigwVR1T8FTU4ASY29N0eHnZl" x="-200%" y="-200%" width="400%" height="400%" filterUnits="objectBoundingBox" color-interpolation-filters="sRGB"><feGaussianBlur xmlns="http://www.w3.org/2000/svg" in="SourceGraphic" stdDeviation="0"/><feOffset xmlns="http://www.w3.org/2000/svg" dx="6" dy="0" result="pf_100_offsetBlur"/><feFlood xmlns="http://www.w3.org/2000/svg" flood-color="#C35D26" flood-opacity="1"/><feComposite xmlns="http://www.w3.org/2000/svg" in2="pf_100_offsetBlur" operator="in" result="pf_100_dropShadow"/><feBlend xmlns="http://www.w3.org/2000/svg" in="SourceGraphic" in2="pf_100_dropShadow" mode="normal"/></filter></defs><g><linearGradient id="_lgradient_8" x1="0" y1="0.5" x2="1" y2="0.5" gradientTransform="matrix(75.728,0,0,26.1,54.647,102.376)" gradientUnits="userSpaceOnUse"><stop offset="0.8333333333333334%" stop-opacity="1" style="stop-color:rgb(239,40,117)"/><stop offset="99.16666666666667%" stop-opacity="1" style="stop-color:rgb(195,93,38)"/></linearGradient><path d=" M 97.969 106.409 L 95.227 118.747 L 93.592 118.936 L 90.904 110.029 L 88.245 119.556 L 86.636 119.743 L 83.911 108.159 L 85.727 107.932 L 87.631 116.935 L 90.231 107.372 L 91.68 107.191 L 94.347 116.143 L 96.173 106.629 L 97.956 106.408 L 97.969 106.409 Z  M 113.979 104.416 L 111.173 116.901 L 109.5 117.095 L 106.751 108.089 L 104.031 117.729 L 102.385 117.92 L 99.585 106.208 L 101.443 105.977 L 103.389 115.08 L 106.049 105.403 L 107.532 105.219 L 110.276 114.269 L 112.143 104.645 L 113.967 104.419 L 113.979 104.416 Z  M 130.36 102.376 L 127.488 115.009 L 125.777 115.209 L 122.977 106.103 L 120.193 115.857 L 118.509 116.053 L 115.656 104.209 L 117.557 103.972 L 119.551 113.179 L 122.273 103.385 L 123.789 103.199 L 126.597 112.349 L 128.508 102.611 L 130.375 102.379 L 130.36 102.376 Z  M 63.688 105.28 L 64.357 105.291 L 64.691 105.327 L 65.017 105.363 L 65.655 105.496 L 66.276 105.691 L 66.577 105.824 L 66.871 105.952 L 67.156 106.103 L 67.433 106.263 L 67.711 106.433 L 67.98 106.615 L 68.241 106.817 L 68.485 107.021 L 68.729 107.245 L 68.965 107.48 L 69.192 107.727 L 69.412 107.983 L 69.612 108.252 L 69.815 108.521 L 70.001 108.812 L 70.179 109.113 L 70.348 109.416 L 70.508 109.731 L 70.652 110.056 L 70.788 110.393 L 70.915 110.74 L 71.024 111.089 L 71.211 111.813 L 71.287 112.187 L 71.345 112.587 L 71.396 112.987 L 71.429 113.387 L 71.447 113.787 L 71.455 114.189 L 71.447 114.589 L 71.429 114.995 L 71.396 115.392 L 71.345 115.792 L 71.287 116.192 L 71.211 116.584 L 71.117 116.979 L 71.024 117.352 L 70.915 117.752 L 70.788 118.12 L 70.652 118.491 L 70.508 118.851 L 70.348 119.204 L 70.179 119.557 L 70.011 119.881 L 75.4 125.519 L 73.073 128.476 L 67.7 122.836 L 67.431 123.063 L 67.153 123.289 L 66.868 123.508 L 66.575 123.708 L 66.273 123.9 L 65.963 124.083 L 65.652 124.245 L 65.332 124.399 L 65.012 124.532 L 64.685 124.657 L 64.352 124.764 L 64.019 124.86 L 63.685 124.937 L 63.335 124.997 L 62.992 125.047 L 62.641 125.076 L 62.299 125.096 L 61.965 125.095 L 61.632 125.075 L 61.299 125.044 L 60.975 124.993 L 60.649 124.933 L 60.343 124.851 L 60.027 124.76 L 59.728 124.649 L 59.428 124.527 L 59.137 124.393 L 58.855 124.241 L 58.588 124.079 L 58.321 123.905 L 58.055 123.721 L 57.799 123.517 L 57.559 123.312 L 57.319 123.085 L 57.087 122.849 L 56.864 122.604 L 56.648 122.356 L 56.448 122.089 L 56.248 121.823 L 56.067 121.533 L 55.893 121.243 L 55.728 120.932 L 55.571 120.62 L 55.431 120.297 L 55.297 119.964 L 55.175 119.631 L 55.068 119.275 L 54.969 118.928 L 54.887 118.56 L 54.812 118.191 L 54.755 117.809 L 54.705 117.427 L 54.672 117.043 L 54.655 116.647 L 54.647 116.24 L 54.655 115.84 L 54.672 115.44 L 54.705 115.04 L 54.755 114.645 L 54.812 114.251 L 54.887 113.851 L 54.969 113.472 L 55.068 113.091 L 55.175 112.717 L 55.297 112.344 L 55.431 111.979 L 55.571 111.621 L 55.728 111.271 L 55.893 110.931 L 56.067 110.588 L 56.248 110.255 L 56.645 109.623 L 56.861 109.313 L 57.084 109.013 L 57.316 108.72 L 57.556 108.436 L 57.796 108.172 L 58.052 107.905 L 58.319 107.657 L 58.585 107.417 L 58.852 107.187 L 59.135 106.965 L 59.425 106.763 L 59.725 106.569 L 60.024 106.396 L 60.34 106.219 L 60.647 106.085 L 60.972 105.936 L 61.296 105.803 L 61.629 105.669 L 62.296 105.483 L 62.639 105.42 L 62.989 105.364 L 63.332 105.331 L 63.683 105.304 L 63.688 105.28 Z  M 62.568 109.183 L 62.36 109.228 L 61.951 109.359 L 61.551 109.527 L 61.359 109.62 L 61.167 109.732 L 60.976 109.844 L 60.792 109.955 L 60.609 110.084 L 60.436 110.223 L 60.269 110.361 L 60.103 110.495 L 59.936 110.652 L 59.779 110.808 L 59.629 110.973 L 59.48 111.147 L 59.339 111.329 L 59.197 111.513 L 59.064 111.704 L 58.94 111.895 L 58.815 112.095 L 58.491 112.719 L 58.4 112.945 L 58.307 113.161 L 58.224 113.385 L 58.149 113.619 L 58.083 113.851 L 58.025 114.081 L 57.976 114.321 L 57.925 114.561 L 57.892 114.799 L 57.86 115.047 L 57.843 115.292 L 57.827 115.559 L 57.827 116.055 L 57.843 116.295 L 57.86 116.535 L 57.892 116.775 L 57.925 117.005 L 57.976 117.232 L 58.025 117.459 L 58.083 117.685 L 58.149 117.891 L 58.224 118.107 L 58.307 118.311 L 58.4 118.513 L 58.491 118.707 L 58.597 118.889 L 58.704 119.08 L 58.811 119.253 L 58.936 119.423 L 59.06 119.593 L 59.193 119.743 L 59.335 119.903 L 59.476 120.043 L 59.625 120.18 L 59.775 120.309 L 59.932 120.436 L 60.432 120.756 L 60.605 120.844 L 60.788 120.929 L 60.972 121.005 L 61.163 121.072 L 61.355 121.128 L 61.547 121.173 L 61.747 121.208 L 61.947 121.244 L 62.147 121.257 L 62.356 121.273 L 62.773 121.263 L 62.991 121.249 L 63.208 121.213 L 63.625 121.125 L 63.835 121.063 L 64.035 121 L 64.235 120.917 L 64.435 120.837 L 64.627 120.744 L 64.82 120.644 L 65.012 120.533 L 65.196 120.4 L 65.383 120.271 L 65.559 120.143 L 65.727 120.009 L 65.893 119.876 L 66.061 119.743 L 66.221 119.576 L 66.372 119.412 L 66.524 119.239 L 66.667 119.065 L 66.944 118.689 L 67.069 118.489 L 67.187 118.289 L 67.32 118.089 L 67.429 117.871 L 67.539 117.663 L 67.632 117.445 L 67.725 117.219 L 67.811 116.992 L 67.885 116.757 L 67.952 116.533 L 68.011 116.291 L 68.112 115.808 L 68.145 115.568 L 68.179 115.319 L 68.213 114.825 L 68.213 114.325 L 68.196 114.059 L 68.179 113.815 L 68.145 113.575 L 68.112 113.343 L 68.061 113.113 L 68.011 112.887 L 67.952 112.668 L 67.885 112.451 L 67.811 112.235 L 67.725 112.029 L 67.632 111.835 L 67.539 111.631 L 67.32 111.265 L 67.187 111.084 L 67.069 110.913 L 66.944 110.753 L 66.811 110.593 L 66.525 110.295 L 66.373 110.157 L 66.223 110.029 L 66.063 109.912 L 65.895 109.796 L 65.728 109.689 L 65.56 109.593 L 65.384 109.5 L 65.197 109.415 L 65.013 109.351 L 64.821 109.287 L 64.628 109.223 L 64.436 109.179 L 64.236 109.144 L 64.036 109.111 L 63.836 109.097 L 63.209 109.097 L 62.775 109.151 L 62.565 109.197 L 62.568 109.183 Z " fill="url(#_lgradient_8)"/></g><g filter="url(#H8rKwTbSXQvoW0ldoBvzSS54rAthrrfj)"><linearGradient id="_lgradient_9" x1="-0.07335912815674259" y1="-0.011767097370517371" x2="1.8810491641992437" y2="0.8147510046784264" gradientTransform="matrix(147.152,0,0,290.375,0,162.817)" gradientUnits="userSpaceOnUse"><stop offset="1.25%" stop-opacity="1" style="stop-color:rgb(239,40,117)"/><stop offset="100%" stop-opacity="1" style="stop-color:rgb(255,134,69)"/></linearGradient><path d=" M 126.331 162.872 C 137.753 162.019 147.152 171.152 147.152 183.272 L 147.152 433.565 C 147.152 445.696 137.752 454.405 126.331 453.053 L 17.445 440.149 C 7.752 439 0 429.205 0 418.248 L 0 192.147 C 0 181.197 7.752 171.747 17.445 171.009 L 126.331 162.873 L 126.331 162.872 Z " fill="url(#_lgradient_9)"/><clipPath id="_clipPath_AUxO5FzYtW6Fu7BOEN99Qfw5IhbITv56"><path d=" M 126.331 162.872 C 137.753 162.019 147.152 171.152 147.152 183.272 L 147.152 433.565 C 147.152 445.696 137.752 454.405 126.331 453.053 L 17.445 440.149 C 7.752 439 0 429.205 0 418.248 L 0 192.147 C 0 181.197 7.752 171.747 17.445 171.009 L 126.331 162.873 L 126.331 162.872 Z " fill="url(#_lgradient_9)"/></clipPath><g clip-path="url(#_clipPath_AUxO5FzYtW6Fu7BOEN99Qfw5IhbITv56)"><mask id="_mask_Bj0f8SAeCyvsxzXtvwtlJNqNc76hVWaC"><circle  cx="69.01061766737287" cy="240.50000000000003" r="58.49999999999997" fill="white" stroke="none"/></mask><circle  cx="69.01061766737287" cy="240.50000000000003" r="58.49999999999997" fill="none"/><circle  cx="69.01061766737287" cy="240.50000000000003" r="58.49999999999997" fill="none" mask="url(#_mask_Bj0f8SAeCyvsxzXtvwtlJNqNc76hVWaC)" stroke-width="10" stroke="rgb(255,255,255)" stroke-linejoin="miter" stroke-linecap="square" stroke-miterlimit="3"/></g></g><defs><filter id="H8rKwTbSXQvoW0ldoBvzSS54rAthrrfj" x="-200%" y="-200%" width="400%" height="400%" filterUnits="objectBoundingBox" color-interpolation-filters="sRGB"><feGaussianBlur xmlns="http://www.w3.org/2000/svg" in="SourceGraphic" stdDeviation="0"/><feOffset xmlns="http://www.w3.org/2000/svg" dx="6" dy="0" result="pf_100_offsetBlur"/><feFlood xmlns="http://www.w3.org/2000/svg" flood-color="#C35D26" flood-opacity="1"/><feComposite xmlns="http://www.w3.org/2000/svg" in2="pf_100_offsetBlur" operator="in" result="pf_100_dropShadow"/><feBlend xmlns="http://www.w3.org/2000/svg" in="SourceGraphic" in2="pf_100_dropShadow" mode="normal"/></filter></defs><g filter="url(#bBvNC0VF4tCxazzqRz6ScNhLEmEBaBD6)"><linearGradient id="_lgradient_10" x1="0.49205929834370893" y1="1.576587043077106" x2="-0.9584303506082175" y2="0.05902896882702802" gradientTransform="matrix(202.231,0,0,159.501,177.291,145.934)" gradientUnits="userSpaceOnUse"><stop offset="0%" stop-opacity="1" style="stop-color:rgb(255,134,69)"/><stop offset="97.5%" stop-opacity="1" style="stop-color:rgb(239,40,117)"/></linearGradient><path d=" M 351.917 146.017 C 367.045 144.888 379.521 155.293 379.521 169.261 L 379.521 280.608 C 379.521 294.591 367.045 305.696 351.917 305.429 L 199.56 302.752 C 187.179 302.535 177.291 292.341 177.291 279.971 L 177.291 181.453 C 177.291 169.093 187.179 158.325 199.56 157.4 L 351.917 146.016 L 351.917 146.017 Z " fill="url(#_lgradient_10)"/><clipPath id="_clipPath_Y2KX2WEWA1a9Im1SrPgtpCK89GX70Bkg"><path d=" M 351.917 146.017 C 367.045 144.888 379.521 155.293 379.521 169.261 L 379.521 280.608 C 379.521 294.591 367.045 305.696 351.917 305.429 L 199.56 302.752 C 187.179 302.535 177.291 292.341 177.291 279.971 L 177.291 181.453 C 177.291 169.093 187.179 158.325 199.56 157.4 L 351.917 146.016 L 351.917 146.017 Z " fill="url(#_lgradient_10)"/></clipPath><g clip-path="url(#_clipPath_Y2KX2WEWA1a9Im1SrPgtpCK89GX70Bkg)"><mask id="_mask_FWQDM6VE7SLWnrhnLyLrkYZMmynrqJzY"><circle  cx="363" cy="339" r="82" fill="white" stroke="none"/></mask><circle  cx="363" cy="339" r="82" fill="none"/><circle  cx="363" cy="339" r="82" fill="none" mask="url(#_mask_FWQDM6VE7SLWnrhnLyLrkYZMmynrqJzY)" stroke-width="10" stroke="rgb(255,255,255)" stroke-linejoin="miter" stroke-linecap="square" stroke-miterlimit="3"/></g></g><defs><filter id="bBvNC0VF4tCxazzqRz6ScNhLEmEBaBD6" x="-200%" y="-200%" width="400%" height="400%" filterUnits="objectBoundingBox" color-interpolation-filters="sRGB"><feGaussianBlur xmlns="http://www.w3.org/2000/svg" in="SourceGraphic" stdDeviation="0"/><feOffset xmlns="http://www.w3.org/2000/svg" dx="6" dy="0" result="pf_100_offsetBlur"/><feFlood xmlns="http://www.w3.org/2000/svg" flood-color="#C35D26" flood-opacity="1"/><feComposite xmlns="http://www.w3.org/2000/svg" in2="pf_100_offsetBlur" operator="in" result="pf_100_dropShadow"/><feBlend xmlns="http://www.w3.org/2000/svg" in="SourceGraphic" in2="pf_100_dropShadow" mode="normal"/></filter></defs><g filter="url(#5uY2F1TZnFW1zEnaZOcx7JYMErFwQE9h)"><linearGradient id="_lgradient_11" x1="0.5179928393219473" y1="0.5182388846149457" x2="-0.92143430643382" y2="-0.9408718845806623" gradientTransform="matrix(202.231,0,0,163.626,177.291,316.372)" gradientUnits="userSpaceOnUse"><stop offset="1.25%" stop-opacity="1" style="stop-color:rgb(255,134,69)"/><stop offset="98.33333333333333%" stop-opacity="1" style="stop-color:rgb(239,40,117)"/></linearGradient><path d=" M 351.917 320.376 C 367.045 320.773 379.521 332.437 379.521 346.407 L 379.521 457.753 C 379.521 471.735 367.045 481.58 351.917 479.788 L 199.56 461.733 C 187.179 460.267 177.291 449.075 177.291 436.704 L 177.291 338.187 C 177.291 325.827 187.179 316.056 199.56 316.38 L 351.917 320.376 L 351.917 320.376 Z " fill="url(#_lgradient_11)"/><clipPath id="_clipPath_xxVNeyVtMmhuqg4kaTrQx4UrNLDrdIh8"><path d=" M 351.917 320.376 C 367.045 320.773 379.521 332.437 379.521 346.407 L 379.521 457.753 C 379.521 471.735 367.045 481.58 351.917 479.788 L 199.56 461.733 C 187.179 460.267 177.291 449.075 177.291 436.704 L 177.291 338.187 C 177.291 325.827 187.179 316.056 199.56 316.38 L 351.917 320.376 L 351.917 320.376 Z " fill="url(#_lgradient_11)"/></clipPath><g clip-path="url(#_clipPath_xxVNeyVtMmhuqg4kaTrQx4UrNLDrdIh8)"><mask id="_mask_ec7QLiJQEmf2Qpf8f4KwSjDcuw2pCFjv"><circle  cx="363" cy="339" r="82" fill="white" stroke="none"/></mask><circle  cx="363" cy="339" r="82" fill="none"/><circle  cx="363" cy="339" r="82" fill="none" mask="url(#_mask_ec7QLiJQEmf2Qpf8f4KwSjDcuw2pCFjv)" stroke-width="10" stroke="rgb(255,255,255)" stroke-linejoin="miter" stroke-linecap="square" stroke-miterlimit="3"/></g></g><defs><filter id="5uY2F1TZnFW1zEnaZOcx7JYMErFwQE9h" x="-200%" y="-200%" width="400%" height="400%" filterUnits="objectBoundingBox" color-interpolation-filters="sRGB"><feGaussianBlur xmlns="http://www.w3.org/2000/svg" in="SourceGraphic" stdDeviation="0"/><feOffset xmlns="http://www.w3.org/2000/svg" dx="6" dy="0" result="pf_100_offsetBlur"/><feFlood xmlns="http://www.w3.org/2000/svg" flood-color="#C35D26" flood-opacity="1"/><feComposite xmlns="http://www.w3.org/2000/svg" in2="pf_100_offsetBlur" operator="in" result="pf_100_dropShadow"/><feBlend xmlns="http://www.w3.org/2000/svg" in="SourceGraphic" in2="pf_100_dropShadow" mode="normal"/></filter></defs></g></g></g></svg>